<svg xmlns="http://www.w3.org/2000/svg" viewBox="22 28 200 200"><rect x="22" y="28" width="200" height="200" rx="44" fill="#E6F2DC"/><path d="M196 138q-7 12 0 16q7-4 0-16z" fill="#7CC7F2" stroke="#2A2433" stroke-width="2.5"/><path d="M134 240Q176 232 182 190" fill="none" stroke="#2A2433" stroke-width="5" stroke-linecap="round"/><rect x="108" y="226" width="24" height="42" rx="10" fill="#4E9A2F" stroke="#2A2433" stroke-width="4"/><rect x="102" y="222" width="36" height="11" rx="5.5" fill="#C9D1DB" stroke="#2A2433" stroke-width="4"/><path d="M120 228C70 200 52 150 66 118C80 88 160 88 174 118C188 150 170 200 120 228Z" fill="#FFEFD6" stroke="#2A2433" stroke-width="5" stroke-linejoin="round"/><path d="M120 228C92 200 84 150 92 120C99 96 141 96 148 120C156 150 148 200 120 228Z" fill="none" stroke="#8C96A3" stroke-width="3" opacity=".45"/><ellipse cx="146" cy="150" rx="14" ry="16" fill="#fff" stroke="#2A2433" stroke-width="3.5"/><circle cx="149" cy="154" r="7.5" fill="#2A2433"/><circle cx="152" cy="150" r="2.8" fill="#fff"/><ellipse cx="96" cy="154" rx="13" ry="15" fill="#fff" stroke="#2A2433" stroke-width="3.5"/><circle cx="99" cy="160" r="7" fill="#2A2433"/><ellipse cx="94" cy="183" rx="9" ry="5.5" fill="#FF9C8A" opacity=".75"/><ellipse cx="156" cy="181" rx="9" ry="5.5" fill="#FF9C8A" opacity=".75"/><ellipse cx="136" cy="191" rx="5" ry="6" fill="#FF7A6B" stroke="#2A2433" stroke-width="2.5"/><path d="M112 186Q124 194 140 184" fill="none" stroke="#2A2433" stroke-width="3.5" stroke-linecap="round"/><g transform="rotate(-16 115 115)"><g stroke="#2A2433" stroke-width="7" fill="#fff"><circle cx="76" cy="88" r="27"/><circle cx="117" cy="68" r="34"/><circle cx="158" cy="88" r="27"/><rect x="60" y="80" width="114" height="34"/></g><g fill="#fff"><circle cx="76" cy="88" r="27"/><circle cx="117" cy="68" r="34"/><circle cx="158" cy="88" r="27"/><rect x="60" y="80" width="114" height="34"/></g><path d="M148 62c5-5 13 0 9 6c6 3 0 11-5 7c-4 5-12-1-7-6c-5-3-1-9 3-7z" fill="#E8622F"/><rect x="52" y="108" width="130" height="30" rx="9" fill="#fff" stroke="#2A2433" stroke-width="4"/></g><circle cx="186" cy="186" r="7" fill="#FFEFD6" stroke="#2A2433" stroke-width="3"/></svg>
